Format : AVI
Format/Info : Audio Video Interleave
File size : 1.62 GiB
Duration : 1h 51mn
Overall bit rate : 2 080 Kbps
Writing application : VirtualDubMod 1.5.10.2 (build 2540/release)
Writing library : VirtualDubMod build 2540/release

Video
ID : 0
Format : MPEG-4 Visual
Format profile : Advanced Simple@L5
Format settings, BVOP : 2
Format settings, QPel : No
Format settings, GMC : No warppoints
Format settings, Matrix : Default (H.263)
Muxing mode : Packed bitstream
Codec ID : XVID
Codec ID/Hint : XviD
Duration : 1h 51mn
Bit rate : 1 623 Kbps
Width : 720 pixels
Height : 304 pixels
Display aspect ratio : 2.35:1
Frame rate : 23.976 fps
Color space : YUV
Chroma subsampling : 4:2:0
Bit depth : 8 bits
Scan type : Progressive
Compression mode : Lossy
Bits/(Pixel*Frame) : 0.309
Stream size : 1.27 GiB (78%)
Writing library : XviD 64

Audio
ID : 1
Format : AC-3
Format/Info : Audio Coding 3
Mode extension : CM (complete main)
Codec ID : 2000
Duration : 1h 51mn
Bit rate mode : Constant
Bit rate : 448 Kbps
Channel(s) : 6 channels
Channel positions : Front: L C R, Side: L R, LFE
Sampling rate : 48.0 KHz
Bit depth : 16 bits
Compression mode : Lossy
Stream size : 358 MiB (22%)
Alignment : Split accross interleaves
Interleave, duration : 42 ms (1.00 video frame)
Interleave, preload duration : 500 ms









 
http://www.imdb.com/title/tt1650062/




Ratings: 7.4/10 from 67,129 users Metascore: 72/100
Reviews: 581 user | 392 critic | 41 from Metacritic.com

During the summer of 1979, a group of friends witness a train crash and investigate subsequent unexplained events in their small town.


















Source Used

Super.8.2011.BluRay.720p.x264.DTS-HDChina ...Thanks

Apologies no sample give a guy a break :-) im ill thats why so late on this


Enjoy





Greetz to IMAGiNE,Flawl3ss,BDK,Ez,Rx,CreWsaDe,TaRiQ786,ETRG,BHRG,iLLUMiNATi
